<!DOCTYPE svg PUBLIC "-//W3C//DTD SVG 1.1//EN" "http://www.w3.org/Graphics/SVG/1.1/DTD/svg11.dtd">
<!-- Uploaded to: SVG Repo, www.svgrepo.com, Transformed by: SVG Repo Mixer Tools -->
<svg fill="#ffffff" width="800px" height="800px" viewBox="-2.16 -2.16 40.32 40.32" version="1.1" preserveAspectRatio="xMidYMid meet" xmlns="http://www.w3.org/2000/svg" xmlns:xlink="http://www.w3.org/1999/xlink" stroke="#ffffff" stroke-width="0.00036" transform="matrix(1, 0, 0, 1, 0, 0)">
<g id="SVGRepo_bgCarrier" stroke-width="0" transform="translate(0,0), scale(1)">
<rect x="-2.16" y="-2.16" width="40.32" height="40.32" rx="20.16" fill="#000000" strokewidth="0"/>
</g>
<g id="SVGRepo_tracerCarrier" stroke-linecap="round" stroke-linejoin="round" stroke="#000000" stroke-width="0.144"/>
<g id="SVGRepo_iconCarrier"> <title>accessibility-1-solid</title> <path d="M14.77,31.94a7.31,7.31,0,0,1-5.7-11.88L7.65,18.64a9.3,9.3,0,0,0,13.1,13.11l-1.42-1.42A7.29,7.29,0,0,1,14.77,31.94Z" class="clr-i-solid clr-i-solid-path-1"/>
<path d="M26.65,2.1a3.12,3.12,0,1,0,3.11,3.12A3.12,3.12,0,0,0,26.65,2.1Z" class="clr-i-solid clr-i-solid-path-2"/>
<path d="M26.81,18.18H21.47q-.31-.33-.66-.63l4.38-4.86a2.14,2.14,0,0,0-.53-3.27L20.9,7.23l0,0L17.05,5.07a1,1,0,0,0-1.11.08L11.15,8.9a1,1,0,0,0,1.23,1.58l4.27-3.34,2.87,1.63L13.6,15.39a9.33,9.33,0,0,0-4.44,1.82l1.42,1.43A7.3,7.3,0,0,1,20.75,28.81l1.43,1.43A9.27,9.27,0,0,0,23,20.18h2.74l-.77,6.51a1,1,0,0,0,.87,1.11h.12a1,1,0,0,0,1-.88l.9-7.62a1,1,0,0,0-.25-.78A1,1,0,0,0,26.81,18.18Z" class="clr-i-solid clr-i-solid-path-3"/> <rect x="0" y="0" width="36" height="36" fill-opacity="0"/> </g>
</svg>